HIERARCHY
ROOT Hips
{
	OFFSET 0.00000 0.00000 0.00000
	CHANNELS 6 Xposition Yposition Zposition Zrotation Yrotation Xrotation 
	JOINT LHipJoint
	{
		OFFSET 0 0 0
		CHANNELS 3 Zrotation Yrotation Xrotation
		JOINT LeftUpLeg
		{
			OFFSET 1.53139 -1.83434 0.76626
			CHANNELS 3 Zrotation Yrotation Xrotation
			JOINT LeftLeg
			{
				OFFSET 2.56112 -7.03663 0.00000
				CHANNELS 3 Zrotation Yrotation Xrotation
				JOINT LeftFoot
				{
					OFFSET 2.59983 -7.14299 0.00000
					CHANNELS 3 Zrotation Yrotation Xrotation
					JOINT LeftToeBase
					{
						OFFSET 0.13742 -0.37757 2.00054
						CHANNELS 3 Zrotation Yrotation Xrotation
						End Site
						{
							OFFSET 0.00000 -0.00000 1.02897
						}
					}
				}
			}
		}
	}
	JOINT RHipJoint
	{
		OFFSET 0 0 0
		CHANNELS 3 Zrotation Yrotation Xrotation
		JOINT RightUpLeg
		{
			OFFSET -1.40122 -1.83435 0.76627
			CHANNELS 3 Zrotation Yrotation Xrotation
			JOINT RightLeg
			{
				OFFSET -2.54052 -6.98003 0.00000
				CHANNELS 3 Zrotation Yrotation Xrotation
				JOINT RightFoot
				{
					OFFSET -2.63179 -7.23079 0.00000
					CHANNELS 3 Zrotation Yrotation Xrotation
					JOINT RightToeBase
					{
						OFFSET -0.24131 -0.66299 2.03908
						CHANNELS 3 Zrotation Yrotation Xrotation
						End Site
						{
							OFFSET -0.00000 -0.00000 1.07391
						}
					}
				}
			}
		}
	}
	JOINT LowerBack
	{
		OFFSET 0 0 0
		CHANNELS 3 Zrotation Yrotation Xrotation
		JOINT Spine
		{
			OFFSET 0.01174 2.10302 -0.29778
			CHANNELS 3 Zrotation Yrotation Xrotation
			JOINT Spine1
			{
				OFFSET 0.00772 2.13227 -0.01247
				CHANNELS 3 Zrotation Yrotation Xrotation
				JOINT Neck
				{
					OFFSET 0 0 0
					CHANNELS 3 Zrotation Yrotation Xrotation
					JOINT Neck1
					{
						OFFSET -0.09219 1.60848 0.31481
						CHANNELS 3 Zrotation Yrotation Xrotation
						JOINT Head
						{
							OFFSET 0.13974 1.65456 -0.31134
							CHANNELS 3 Zrotation Yrotation Xrotation
							End Site
							{
								OFFSET 0.04742 1.69515 -0.14578
							}
						}
					}
				}
				JOINT LeftShoulder
				{
					OFFSET 0 0 0
					CHANNELS 3 Zrotation Yrotation Xrotation
					JOINT LeftArm
					{
						OFFSET 3.24909 1.02882 -0.23993
						CHANNELS 3 Zrotation Yrotation Xrotation
						JOINT LeftForeArm
						{
							OFFSET 5.32955 -0.00000 -0.00000
							CHANNELS 3 Zrotation Yrotation Xrotation
							JOINT LeftHand
							{
								OFFSET 3.69232 -0.00000 -0.00000
								CHANNELS 3 Zrotation Yrotation Xrotation
								JOINT LeftFingerBase
								{
									OFFSET 0 0 0
									CHANNELS 3 Zrotation Yrotation Xrotation
									JOINT LeftHandIndex1
									{
										OFFSET 0.53660 -0.00000 -0.00000
										CHANNELS 3 Zrotation Yrotation Xrotation
										End Site
										{
											OFFSET 0.43262 -0.00000 -0.00000
										}
									}
								}
								JOINT LThumb
								{
									OFFSET 0 0 0
									CHANNELS 3 Zrotation Yrotation Xrotation
									End Site
									{
										OFFSET 0.43922 -0.00000 0.43922
									}
								}
							}
						}
					}
				}
				JOINT RightShoulder
				{
					OFFSET 0 0 0
					CHANNELS 3 Zrotation Yrotation Xrotation
					JOINT RightArm
					{
						OFFSET -3.21387 0.93002 -0.34594
						CHANNELS 3 Zrotation Yrotation Xrotation
						JOINT RightForeArm
						{
							OFFSET -5.23431 -0.00000 0.00000
							CHANNELS 3 Zrotation Yrotation Xrotation
							JOINT RightHand
							{
								OFFSET -3.55301 -0.00000 -0.00000
								CHANNELS 3 Zrotation Yrotation Xrotation
								JOINT RightFingerBase
								{
									OFFSET 0 0 0
									CHANNELS 3 Zrotation Yrotation Xrotation
									JOINT RightHandIndex1
									{
										OFFSET -0.77252 -0.00000 -0.00000
										CHANNELS 3 Zrotation Yrotation Xrotation
										End Site
										{
											OFFSET -0.62283 -0.00000 -0.00000
										}
									}
								}
								JOINT RThumb
								{
									OFFSET 0 0 0
									CHANNELS 3 Zrotation Yrotation Xrotation
									End Site
									{
										OFFSET -0.63234 -0.00000 0.63234
									}
								}
							}
						}
					}
				}
			}
		}
	}
}
MOTION
Frames: 12
Frame Time: .0083333
10.1481 17.6425 5.7366 8.1720 67.6799 362.2740 0.0000 0.0000 0.0000 -12.7398 -4.2609 -3.4898 1.4091 7.5082 21.2301 0.1287 -2.4308 -6.3703 0.9050 -6.0624 -16.9656 0.0000 0.0000 0.0000 5.8837 2.3154 6.1654 -2.0975 -9.0663 26.0029 -0.1885 -10.5897 -17.6694 -0.3881 4.0002 -11.0772 2.2835 3.6941 11.5433 -0.8890 5.1822 0.8079 -3.0276 2.5024 -5.3229 -6.9970 1.3151 -16.2723 1.3009 6.1438 41.8260 3.2578 2.1102 18.1886 0.0000 -0.0000 0.0000 -88.0887 6.2279 4.3586 15.4567 -24.7785 -3.4151 -0.0000 -0.0000 4.9822 25.0175 19.5493 8.8756 -7.1250 0.0000 -0.0000 -3.3676 51.3471 -0.5270 0.0000 -0.0000 0.0000 84.0419 -4.4707 3.3846 -19.0178 29.4408 -5.0396 0.0000 0.0000 5.3938 -17.6557 9.7171 -3.0751 7.1250 -0.0000 -0.0000 6.6443 -19.8267 4.0237
10.2183 17.6458 5.6313 9.3914 68.1465 363.5140 0.0000 0.0000 0.0000 -13.7137 -4.2684 -3.5575 1.3934 7.4681 21.1097 0.1386 -2.6488 -6.6149 0.7317 -5.4650 -15.2398 0.0000 0.0000 0.0000 5.0037 2.1065 5.9968 -2.1463 -9.1643 26.3106 -0.1325 -10.8263 -17.2521 -0.2759 3.3787 -9.3348 1.9118 3.5595 11.4502 -0.8608 4.9553 0.8327 -2.7494 2.4005 -5.2932 -7.1595 1.3412 -16.3362 1.1862 6.3150 41.8637 3.2699 2.1356 18.2231 0.0000 0.0000 0.0000 -88.5108 5.9548 3.9367 15.4275 -24.7383 -3.4028 -0.0000 -0.0000 5.3846 25.1851 19.5097 8.9252 -7.1250 0.0000 -0.0000 -3.1892 51.3343 -0.4980 0.0000 0.0000 0.0000 83.7649 -4.3035 3.2091 -19.0163 29.4389 -5.0388 0.0000 0.0000 5.4278 -17.7817 10.1680 -3.2405 7.1250 -0.0000 -0.0000 6.5533 -19.3500 4.0381
10.2876 17.6492 5.5261 10.7929 68.5829 364.8820 0.0000 0.0000 0.0000 -14.6974 -4.4030 -3.4859 1.3732 7.4159 20.9536 0.1425 -2.9698 -6.7212 0.7003 -5.3492 -14.9072 0.0000 0.0000 0.0000 4.0700 1.8276 5.7928 -2.2107 -9.2919 26.7126 -0.0620 -11.1227 -16.7039 -0.1980 2.8656 -7.9049 1.5353 3.4421 11.4032 -0.8621 4.7509 0.8604 -2.5062 2.3091 -5.2798 -7.2804 1.3962 -16.2736 1.0285 6.5083 41.7969 3.2480 2.1781 18.1637 -0.0000 -0.0000 0.0000 -88.7475 5.7392 4.0178 15.3955 -24.6942 -3.3895 -0.0000 -0.0000 5.2603 25.0359 19.4291 8.8312 -7.1250 0.0000 -0.0000 -3.3195 51.2215 -0.5092 -0.0000 -0.0000 0.0000 83.5765 -4.1702 2.9220 -19.1232 29.5715 -5.0915 0.0000 0.0000 5.1842 -17.5306 10.3691 -3.2541 7.1250 -0.0000 -0.0000 6.7310 -19.1577 4.1781
10.3520 17.6543 5.4223 11.8836 69.0649 366.0080 0.0000 0.0000 0.0000 -15.4650 -4.7571 -3.3941 1.3502 7.3560 20.7744 0.1380 -3.4759 -6.6699 0.6529 -5.1686 -14.3902 0.0000 0.0000 0.0000 3.3037 1.4189 5.4269 -2.2910 -9.4475 27.2056 0.0280 -11.5217 -15.9977 -0.1523 2.5146 -6.9300 1.3713 3.3274 11.3855 -0.9125 4.5748 0.8278 -2.4412 2.2245 -5.3215 -7.3386 1.4323 -16.1348 0.9298 6.6271 41.7747 3.2290 2.2113 18.1127 -0.0000 -0.0000 0.0000 -88.7821 5.6534 4.7152 15.4050 -24.7073 -3.3934 -0.0000 -0.0000 4.8523 24.9735 19.4306 8.8072 -7.1250 0.0000 -0.0000 -3.3826 51.2121 -0.5181 -0.0000 -0.0000 0.0000 83.5018 -4.1760 2.8628 -19.3956 29.9072 -5.2266 0.0000 0.0000 4.5459 -17.1976 9.7210 -2.9916 7.1250 -0.0000 -0.0000 6.9707 -19.8507 4.2206
10.4133 17.6592 5.3227 12.8142 69.5840 366.9320 0.0000 0.0000 0.0000 -16.1179 -5.1563 -3.2194 1.3245 7.2886 20.5733 0.1238 -4.1627 -6.4742 0.6207 -5.0418 -14.0279 0.0000 0.0000 0.0000 2.6889 1.0402 5.1213 -2.3855 -9.6268 27.7763 0.1105 -11.9430 -15.3966 -0.0691 1.6963 -4.6670 1.2118 3.2015 11.4049 -0.9107 4.3877 0.8308 -2.3234 2.1356 -5.3500 -7.5279 1.4399 -16.1187 0.9342 6.7305 41.8435 3.2874 2.2253 18.1384 0.0000 -0.0000 0.0000 -88.8364 5.5237 5.3801 15.4397 -24.7551 -3.4079 -0.0000 -0.0000 4.6157 25.0157 19.6430 8.9151 -7.1250 0.0000 -0.0000 -3.3926 51.4472 -0.5393 0.0000 -0.0000 0.0000 83.3948 -4.1113 2.7585 -19.5350 30.0781 -5.2963 0.0000 0.0000 4.2233 -16.8409 9.3439 -2.8136 7.1250 -0.0000 -0.0000 7.2294 -20.2620 4.3124
10.4750 17.6663 5.2258 14.0776 70.0519 368.0820 0.0000 0.0000 0.0000 -16.8677 -5.3169 -3.0272 1.3013 7.2270 20.3896 0.1079 -4.9304 -6.3330 0.6227 -5.0498 -14.0507 0.0000 0.0000 0.0000 2.0261 0.8083 4.9182 -2.4921 -9.8236 28.4074 0.1808 -12.3587 -14.9548 -0.0027 0.3330 -0.9150 0.8641 3.0922 11.4357 -0.8757 4.2018 0.9170 -2.0631 2.0543 -5.3123 -7.8264 1.4334 -16.2442 1.0075 6.8428 41.9673 3.4070 2.2279 18.2260 0.0000 -0.0000 0.0000 -89.0429 5.2766 5.5704 15.4705 -24.7975 -3.4208 -0.0000 -0.0000 4.8309 24.5749 19.7307 8.7764 -7.1250 0.0000 -0.0000 -3.8583 51.4630 -0.6150 0.0000 -0.0000 0.0000 83.2623 -4.0060 2.6225 -19.6343 30.1992 -5.3462 0.0000 0.0000 4.1176 -16.6285 9.3426 -2.7757 7.1250 -0.0000 -0.0000 7.3812 -20.2753 4.4023
10.5326 17.6768 5.1322 15.5573 70.4927 369.4620 0.0000 0.0000 0.0000 -17.6408 -5.1330 -3.0519 1.2806 7.1713 20.2240 0.0890 -5.8085 -6.2530 0.6690 -5.2307 -14.5677 0.0000 0.0000 0.0000 1.4400 0.7768 4.6973 -2.6058 -10.0277 29.0666 0.2839 -13.1233 -14.5782 -0.0238 -0.9949 2.7348 0.3976 2.9969 11.4954 -0.8456 4.0189 0.9775 -1.7447 1.9757 -5.3230 -7.9033 1.4608 -16.2809 0.8841 7.0035 42.0578 3.4008 2.2615 18.2898 0.0000 -0.0000 0.0000 -89.2726 5.0007 5.6935 15.4606 -24.7839 -3.4167 -0.0000 -0.0000 5.0497 24.6623 19.9149 8.8889 -7.1250 0.0000 -0.0000 -3.8180 51.6753 -0.6284 0.0000 -0.0000 0.0000 83.1998 -3.9682 2.4630 -19.8026 30.4038 -5.4311 0.0000 0.0000 3.9681 -16.4637 9.2763 -2.7274 7.1250 -0.0000 -0.0000 7.5001 -20.3529 4.4612
10.5849 17.6827 5.0430 16.8604 70.9293 370.7320 0.0000 0.0000 0.0000 -18.2675 -4.6251 -3.2777 1.2572 7.1081 20.0359 0.0486 -7.0245 -6.0015 0.7469 -5.5205 -15.3993 0.0000 0.0000 0.0000 1.0428 0.8553 4.4107 -2.7263 -10.2382 29.7516 0.4051 -14.0816 -14.3094 -0.1543 -2.5311 6.9758 -0.0586 2.9326 11.5134 -0.7666 3.8806 1.0308 -1.3852 1.9193 -5.3168 -7.9826 1.4489 -16.2812 0.7207 7.1054 42.0835 3.3602 2.2688 18.3125 0.0000 0.0000 0.0000 -89.3852 4.7418 6.4719 15.4536 -24.7742 -3.4138 -0.0000 -0.0000 4.8738 25.3262 20.2884 9.3192 -7.1250 0.0000 -0.0000 -3.2424 52.1954 -0.5748 0.0000 0.0000 0.0000 83.0622 -3.8997 2.3205 -19.9255 30.5525 -5.4934 0.0000 0.0000 3.7170 -16.3764 9.1873 -2.6863 7.1250 -0.0000 -0.0000 7.5640 -20.4496 4.4833
10.6377 17.6918 4.9567 17.3447 71.2776 371.2880 0.0000 0.0000 0.0000 -18.5867 -4.0520 -3.5197 1.2321 7.0395 19.8323 -0.0039 -8.1576 -5.6360 0.6949 -5.3287 -14.8484 0.0000 0.0000 0.0000 0.9552 0.9046 3.9714 -2.8518 -10.4513 30.4507 0.5304 -14.9812 -13.9168 -0.3709 -3.9115 10.8279 -0.2137 2.8860 11.4542 -0.6503 3.8054 1.0434 -1.1616 1.8869 -5.2902 -8.2635 1.4809 -16.2292 0.7211 7.2530 42.0148 3.4309 2.2914 18.2394 0.0000 -0.0000 0.0000 -89.4037 4.5744 7.3708 15.4929 -24.8283 -3.4302 -0.0000 -0.0000 4.7153 25.3869 20.3541 9.3727 -7.1250 0.0000 -0.0000 -3.1975 52.2770 -0.5733 0.0000 -0.0000 0.0000 82.9399 -3.8912 2.3709 -20.0270 30.6749 -5.5451 0.0000 0.0000 3.4997 -16.3168 9.1769 -2.6730 7.1250 -0.0000 -0.0000 7.6068 -20.4635 4.5067
10.6919 17.7074 4.8726 17.4047 71.5351 371.4760 0.0000 0.0000 0.0000 -18.8012 -3.5979 -3.6922 1.2107 6.9801 19.6565 -0.0484 -8.9267 -5.3041 0.5395 -4.7059 -13.0717 0.0000 0.0000 0.0000 0.9957 0.8134 3.4099 -2.9734 -10.6519 31.1148 0.6391 -15.6925 -13.4457 -0.5599 -4.7928 13.3185 -0.2234 2.8285 11.3601 -0.5581 3.7328 1.0362 -1.0436 1.8523 -5.2532 -8.4205 1.6259 -16.1834 0.6096 7.5700 41.8828 3.4549 2.3881 18.1318 -0.0000 0.0000 0.0000 -89.4990 4.3326 7.5464 15.5158 -24.8597 -3.4399 -0.0000 -0.0000 5.0481 24.9891 20.0802 9.0914 -7.1250 0.0000 -0.0000 -3.5307 51.9109 -0.6014 -0.0000 0.0000 0.0000 82.9490 -3.9253 2.6070 -20.1239 30.7913 -5.5946 0.0000 0.0000 3.3578 -16.5160 9.2739 -2.7358 7.1250 -0.0000 -0.0000 7.4627 -20.3526 4.4386
10.7450 17.7223 4.7938 17.7639 71.8349 371.8730 0.0000 0.0000 0.0000 -19.0884 -3.1192 -3.7930 1.1931 6.9311 19.5113 -0.1016 -9.7778 -4.9481 0.3881 -4.0002 -11.0772 0.0000 0.0000 0.0000 0.9963 0.6834 2.9783 -3.0909 -10.8407 31.7446 0.6738 -16.0210 -13.5848 -0.7652 -5.5862 15.5885 -0.3400 2.7867 11.3488 -0.4998 3.6659 1.0488 -0.9063 1.8226 -5.2458 -8.4917 1.6546 -16.1725 0.5633 7.6665 41.8671 3.4627 2.4125 18.1157 -0.0000 -0.0000 0.0000 -89.5576 4.1144 7.7662 15.5686 -24.9322 -3.4621 -0.0000 -0.0000 5.3943 24.5948 19.7774 8.8039 -7.1250 0.0000 -0.0000 -3.8504 51.5164 -0.6187 -0.0000 -0.0000 0.0000 82.9756 -3.9263 2.7359 -20.1960 30.8778 -5.6316 0.0000 0.0000 3.2000 -16.5735 9.2754 -2.7463 7.1250 -0.0000 -0.0000 7.4215 -20.3478 4.4145
10.7941 17.7370 4.7211 17.7611 72.1998 371.9040 0.0000 0.0000 0.0000 -19.2251 -2.8039 -3.8423 1.1822 6.9005 19.4210 -0.1508 -10.5028 -4.6414 0.2532 -3.2374 -8.9404 0.0000 0.0000 0.0000 1.2559 0.7758 2.6933 -3.2061 -11.0214 32.3522 0.6276 -15.9416 -14.3418 -1.0028 -6.3723 17.8685 -0.3289 2.7740 11.3351 -0.4585 3.6533 1.0775 -0.8656 1.8171 -5.2101 -8.5337 1.5269 -16.1835 0.7414 7.4335 42.0019 3.5193 2.3331 18.1982 0.0000 0.0000 0.0000 -89.3273 4.0658 8.7314 15.7813 -25.2232 -3.5523 -0.0000 -0.0000 5.2027 24.2618 19.6481 8.6176 -7.1250 0.0000 -0.0000 -4.1512 51.3198 -0.6472 0.0000 0.0000 0.0000 83.0635 -3.8859 2.7865 -20.2197 30.9062 -5.6438 0.0000 0.0000 3.1077 -16.3681 9.2309 -2.6975 7.1250 -0.0000 -0.0000 7.5692 -20.4051 4.4941
